<?xml version="1.0" standalone="no"?>
<!DOCTYPE svg PUBLIC "-//W3C//DTD SVG 20010904//EN"
 "http://www.w3.org/TR/2001/REC-SVG-20010904/DTD/svg10.dtd">
<svg version="1.0" xmlns="http://www.w3.org/2000/svg"
 width="512.000000pt" height="512.000000pt" viewBox="0 0 512.000000 512.000000"
 preserveAspectRatio="xMidYMid meet">
<metadata>
Created by potrace 1.14, written by Peter Selinger 2001-2017
</metadata>
<g transform="translate(0.000000,512.000000) scale(0.100000,-0.100000)"
fill="#000000" stroke="none">
<path d="M1332 4784 c-113 -29 -205 -89 -271 -177 -89 -117 -100 -171 -101
-495 0 -146 -2 -268 -5 -270 -2 -2 -84 -5 -182 -5 -207 -2 -231 -10 -272 -88
-31 -59 -24 -124 20 -174 44 -49 78 -57 270 -58 l169 0 -2 -400 -3 -401 -170
2 c-143 0 -176 -2 -211 -17 -97 -43 -124 -165 -53 -246 44 -49 79 -57 270 -58
l169 0 0 -399 c0 -372 -1 -398 -17 -399 -10 0 -92 -1 -183 -2 -192 -2 -218
-11 -259 -88 -31 -59 -24 -124 20 -174 44 -50 79 -57 270 -58 l169 0 1 -261
c1 -279 2 -297 24 -366 56 -169 209 -299 385 -327 19 -2 667 -5 1440 -5 1024
0 1418 3 1455 11 173 41 312 177 360 354 21 80 21 3666 0 3747 -45 173 -181
309 -351 354 -73 19 -2867 19 -2942 0z"/>
</g>
</svg>
